<svg width="127" height="36" viewBox="0 0 127 36" fill="none" xmlns="http://www.w3.org/2000/svg">
<g opacity="0.6">
<path opacity="0.6" d="M58.3029 24.0067C58.5 24.0067 58.6702 24.0834 58.8136 24.2367L60.2383 25.7929C59.4498 26.7762 58.4776 27.5294 57.3217 28.0527C56.1748 28.5759 54.795 28.8375 53.1821 28.8375C51.7395 28.8375 50.4403 28.5895 49.2844 28.0933C48.1375 27.5971 47.1563 26.907 46.3409 26.0229C45.5255 25.1388 44.8983 24.0834 44.4593 22.8565C44.0292 21.6296 43.8141 20.29 43.8141 18.8376C43.8141 17.3672 44.056 16.023 44.5399 14.8051C45.0237 13.5782 45.7047 12.5228 46.5829 11.6387C47.461 10.7547 48.5093 10.069 49.7279 9.58187C50.9555 9.08572 52.3085 8.83765 53.7869 8.83765C55.2295 8.83765 56.4884 9.07217 57.5636 9.54131C58.6478 10.0014 59.5753 10.6148 60.3458 11.3816L59.1362 13.0731C59.0645 13.1813 58.9704 13.276 58.854 13.3573C58.7464 13.4385 58.5941 13.479 58.3969 13.479C58.1909 13.479 57.9803 13.3978 57.7653 13.2355C57.5502 13.0731 57.2769 12.8971 56.9454 12.7077C56.6139 12.5183 56.1927 12.3423 55.682 12.18C55.1802 12.0176 54.5395 11.9364 53.76 11.9364C52.8461 11.9364 52.0038 12.0988 51.2332 12.4235C50.4716 12.7393 49.8131 13.1948 49.2575 13.7903C48.7109 14.3856 48.2808 15.1119 47.9672 15.9688C47.6626 16.8168 47.5102 17.7731 47.5102 18.8376C47.5102 19.9382 47.6626 20.9169 47.9672 21.774C48.2808 22.631 48.7019 23.3527 49.2306 23.939C49.7592 24.5255 50.382 24.9765 51.0988 25.2922C51.8156 25.599 52.5862 25.7523 53.4106 25.7523C53.9034 25.7523 54.3469 25.7253 54.7411 25.6711C55.1444 25.617 55.5118 25.5313 55.8432 25.414C56.1838 25.2967 56.5019 25.1479 56.7976 24.9675C57.1022 24.778 57.4024 24.548 57.6981 24.2774C57.7877 24.1962 57.8817 24.133 57.9803 24.0879C58.0789 24.0338 58.1864 24.0067 58.3029 24.0067Z" fill="#30424F"/>
<path opacity="0.6" d="M73.0577 28.6211H71.5658C71.2522 28.6211 71.0058 28.576 70.8266 28.4858C70.6474 28.3866 70.513 28.1926 70.4234 27.9039L70.1277 26.9161C69.7783 27.2319 69.4333 27.5115 69.0928 27.755C68.7612 27.9896 68.4163 28.1881 68.0579 28.3505C67.6995 28.5129 67.3187 28.6346 66.9154 28.7158C66.5122 28.797 66.0642 28.8376 65.5714 28.8376C64.989 28.8376 64.4514 28.7609 63.9585 28.6075C63.4657 28.4452 63.0401 28.2062 62.6817 27.8903C62.3323 27.5746 62.059 27.1822 61.8619 26.7131C61.6647 26.244 61.5662 25.6982 61.5662 25.0758C61.5662 24.5525 61.7006 24.0384 61.9694 23.5331C62.2472 23.019 62.7041 22.5589 63.3403 22.1529C63.9765 21.738 64.8233 21.3951 65.8806 21.1245C66.9379 20.8539 68.2505 20.7005 69.8185 20.6645V19.8525C69.8185 18.9233 69.6215 18.2378 69.2272 17.7957C68.8419 17.3447 68.2774 17.1192 67.5337 17.1192C66.9961 17.1192 66.5481 17.1823 66.1897 17.3086C65.8313 17.4349 65.5177 17.5792 65.2489 17.7416C64.989 17.8949 64.747 18.0348 64.523 18.1611C64.299 18.2873 64.0526 18.3505 63.7838 18.3505C63.5598 18.3505 63.3672 18.2919 63.2059 18.1746C63.0446 18.0573 62.9147 17.913 62.8161 17.7416L62.2113 16.6726C63.7973 15.2111 65.7103 14.4805 67.9503 14.4805C68.7568 14.4805 69.4736 14.6158 70.1008 14.8864C70.737 15.148 71.2746 15.5179 71.7137 15.996C72.1527 16.4651 72.4842 17.0289 72.7082 17.6874C72.9413 18.346 73.0577 19.0677 73.0577 19.8525V28.6211ZM66.6063 26.5372C66.9468 26.5372 67.2604 26.5056 67.5471 26.4425C67.8339 26.3793 68.1027 26.2846 68.3536 26.1583C68.6135 26.0321 68.8599 25.8787 69.0928 25.6982C69.3347 25.5088 69.5767 25.2877 69.8185 25.0352V22.6942C68.8508 22.7393 68.04 22.825 67.3859 22.9513C66.7407 23.0686 66.221 23.222 65.8268 23.4114C65.4325 23.6008 65.1502 23.8219 64.9801 24.0744C64.8188 24.327 64.7381 24.6022 64.7381 24.8999C64.7381 25.4863 64.9084 25.9057 65.2489 26.1583C65.5983 26.4109 66.0508 26.5372 66.6063 26.5372Z" fill="#30424F"/>
<path opacity="0.6" d="M75.7844 28.6211V14.7375H77.7333C78.0738 14.7375 78.3113 14.8007 78.4457 14.927C78.5801 15.0533 78.6697 15.2698 78.7145 15.5765L78.9161 17.2545C79.4089 16.3974 79.9868 15.7208 80.6499 15.2247C81.313 14.7285 82.0564 14.4805 82.881 14.4805C83.5621 14.4805 84.1266 14.6383 84.5746 14.9541L84.1446 17.4574C84.1175 17.6198 84.0593 17.7371 83.9698 17.8093C83.8804 17.8724 83.759 17.9039 83.6064 17.9039C83.4726 17.9039 83.2888 17.8724 83.0558 17.8093C82.8228 17.7461 82.5134 17.7145 82.1286 17.7145C81.4386 17.7145 80.847 17.9085 80.3542 18.2964C79.8614 18.6753 79.4447 19.2346 79.1042 19.9744V28.6211H75.7844Z" fill="#30424F"/>
<path opacity="0.6" d="M95.9239 28.621C95.494 28.621 95.2117 28.4181 95.0771 28.0121L94.808 26.6725C94.5216 26.9972 94.2213 27.2904 93.9079 27.552C93.5936 27.8136 93.2531 28.0392 92.8864 28.2287C92.5278 28.4181 92.1381 28.5624 91.7171 28.6616C91.3044 28.7699 90.8564 28.824 90.3731 28.824C89.6199 28.824 88.9298 28.6662 88.303 28.3504C87.6761 28.0347 87.1338 27.5791 86.6767 26.9837C86.2287 26.3793 85.8792 25.6351 85.6281 24.751C85.3861 23.8669 85.2654 22.8565 85.2654 21.7198C85.2654 20.6914 85.4041 19.7352 85.6823 18.8512C85.9596 17.9671 86.3584 17.2002 86.8786 16.5508C87.398 15.9012 88.0207 15.3961 88.7469 15.0352C89.4722 14.6653 90.2878 14.4804 91.1928 14.4804C91.9633 14.4804 92.6222 14.6067 93.1686 14.8593C93.7151 15.1029 94.2033 15.4322 94.6332 15.8471V8.51294H97.953V28.621H95.9239ZM91.5022 26.1718C92.1914 26.1718 92.7789 26.0275 93.2622 25.7388C93.7463 25.4501 94.2033 25.0396 94.6332 24.5074V18.2828C94.2574 17.8228 93.8447 17.498 93.3967 17.3085C92.9577 17.1191 92.4827 17.0244 91.9723 17.0244C91.4702 17.0244 91.0131 17.1191 90.6012 17.3085C90.1984 17.498 89.8529 17.7867 89.5666 18.1745C89.2884 18.5534 89.0734 19.0406 88.9208 19.636C88.769 20.2224 88.6927 20.917 88.6927 21.7198C88.6927 22.5318 88.7551 23.2219 88.8806 23.7903C89.0152 24.3495 89.2031 24.8097 89.4451 25.1705C89.6872 25.5223 89.9834 25.7794 90.3321 25.9418C90.6816 26.0951 91.0714 26.1718 91.5022 26.1718Z" fill="#30424F"/>
<path opacity="0.6" d="M106.711 14.521C107.58 14.521 108.378 14.6609 109.104 14.9405C109.838 15.2201 110.47 15.6306 110.998 16.1718C111.528 16.7041 111.939 17.3627 112.235 18.1475C112.531 18.9233 112.679 19.8119 112.679 20.8132C112.679 21.0658 112.666 21.2778 112.639 21.4492C112.621 21.6116 112.58 21.7424 112.517 21.8417C112.464 21.9319 112.387 21.9996 112.289 22.0447C112.191 22.0808 112.065 22.0988 111.912 22.0988H103.391C103.49 23.5241 103.871 24.5706 104.534 25.2382C105.197 25.9057 106.075 26.2395 107.168 26.2395C107.706 26.2395 108.168 26.1763 108.552 26.05C108.947 25.9237 109.288 25.7839 109.574 25.6305C109.87 25.4772 110.125 25.3374 110.34 25.2111C110.564 25.0847 110.779 25.0216 110.985 25.0216C111.12 25.0216 111.236 25.0486 111.335 25.1028C111.433 25.1569 111.519 25.2336 111.59 25.3328L112.558 26.5507C112.191 26.9838 111.779 27.3491 111.322 27.6468C110.865 27.9355 110.385 28.17 109.883 28.3504C109.39 28.5218 108.884 28.6436 108.365 28.7158C107.853 28.7879 107.356 28.824 106.873 28.824C105.914 28.824 105.023 28.6662 104.198 28.3504C103.373 28.0257 102.657 27.552 102.047 26.9296C101.438 26.2981 100.959 25.5223 100.609 24.6021C100.259 23.673 100.086 22.5995 100.086 21.3816C100.086 20.4344 100.237 19.5458 100.542 18.7159C100.847 17.8769 101.281 17.1507 101.846 16.5372C102.419 15.9148 103.114 15.4231 103.929 15.0622C104.753 14.7014 105.681 14.521 106.711 14.521ZM106.778 16.9162C105.811 16.9162 105.054 17.1912 104.507 17.7416C103.961 18.2918 103.611 19.0722 103.459 20.0825H109.695C109.695 19.6495 109.637 19.2436 109.521 18.8647C109.404 18.4768 109.224 18.1385 108.982 17.8498C108.741 17.5612 108.436 17.3356 108.069 17.1732C107.702 17.0018 107.272 16.9162 106.778 16.9162Z" fill="#30424F"/>
<path opacity="0.6" d="M124.538 28.621C124.108 28.621 123.825 28.4181 123.692 28.0121L123.423 26.6725C123.135 26.9972 122.836 27.2904 122.522 27.552C122.208 27.8136 121.868 28.0392 121.501 28.2287C121.142 28.4181 120.753 28.5624 120.331 28.6616C119.919 28.7699 119.471 28.824 118.987 28.824C118.234 28.824 117.544 28.6662 116.918 28.3504C116.29 28.0347 115.748 27.5791 115.291 26.9837C114.843 26.3793 114.494 25.6351 114.243 24.751C114.001 23.8669 113.88 22.8565 113.88 21.7198C113.88 20.6914 114.019 19.7352 114.297 18.8512C114.574 17.9671 114.973 17.2002 115.492 16.5508C116.013 15.9012 116.635 15.3961 117.361 15.0352C118.087 14.6653 118.902 14.4804 119.807 14.4804C120.578 14.4804 121.236 14.6067 121.783 14.8593C122.33 15.1029 122.818 15.4322 123.248 15.8471V8.51294H126.568V28.621H124.538ZM120.116 26.1718C120.806 26.1718 121.393 26.0275 121.877 25.7388C122.361 25.4501 122.818 25.0396 123.248 24.5074V18.2828C122.871 17.8228 122.459 17.498 122.011 17.3085C121.572 17.1191 121.097 17.0244 120.587 17.0244C120.085 17.0244 119.628 17.1191 119.216 17.3085C118.812 17.498 118.467 17.7867 118.181 18.1745C117.903 18.5534 117.688 19.0406 117.535 19.636C117.384 20.2224 117.307 20.917 117.307 21.7198C117.307 22.5318 117.37 23.2219 117.495 23.7903C117.63 24.3495 117.818 24.8097 118.06 25.1705C118.302 25.5223 118.597 25.7794 118.947 25.9418C119.296 26.0951 119.686 26.1718 120.116 26.1718Z" fill="#30424F"/>
<path opacity="0.6" fill-rule="evenodd" clip-rule="evenodd" d="M6.34948 6.80867C6.9486 4.74413 9.09666 3.55948 11.1473 4.16267L24.0699 7.96392C26.1205 8.56713 27.2972 10.7297 26.6981 12.7943L20.9116 32.7337C20.3125 34.7983 18.1645 35.983 16.1138 35.3798L3.19121 31.5785C1.1406 30.9753 -0.0360539 28.8127 0.563076 26.7481L6.34948 6.80867ZM10.3127 7.03819C9.83955 6.89899 9.34388 7.17237 9.20562 7.64877L3.41919 27.5883C3.28093 28.0647 3.55247 28.5638 4.02568 28.703L16.9483 32.5042C17.4216 32.6434 17.9172 32.3701 18.0555 31.8936L23.8419 11.9542C23.9802 11.4777 23.7087 10.9786 23.2354 10.8394L10.3127 7.03819Z" fill="#30424F"/>
<path opacity="0.6" fill-rule="evenodd" clip-rule="evenodd" d="M14.4224 3.3028C15.0215 1.23827 17.1695 0.053611 19.2201 0.656811L32.1428 4.45808C34.1934 5.06127 35.3701 7.22389 34.771 9.28845L28.9846 29.2279C28.3854 31.2924 26.2374 32.4771 24.1868 31.8739L11.2641 28.0726C9.2135 27.4695 8.03688 25.3068 8.63602 23.2423L14.4224 3.3028ZM18.3857 3.53233C17.9125 3.39313 17.4167 3.66651 17.2785 4.14294L11.4921 24.0824C11.3539 24.5588 11.6254 25.0579 12.0986 25.1972L25.0212 28.9984C25.4944 29.1376 25.9902 28.8642 26.1285 28.3878L31.9149 8.44832C32.0531 7.97184 31.7815 7.4728 31.3083 7.3336L18.3857 3.53233Z" fill="#30424F"/>
</g>
</svg>
